<svg width="49" height="56" viewBox="0 0 49 56" fill="none" xmlns="http://www.w3.org/2000/svg">
<rect width="49" height="56" rx="8" fill="#CDCDCD"/>
<g clip-path="url(#clip0_26847_37)">
<path d="M11.208 17.5V25.75M11.208 25.75H18.458M11.208 25.75L16.8147 19.755C18.1133 18.2765 19.72 17.1964 21.4847 16.6156C23.2493 16.0347 25.1146 15.972 26.9063 16.4334C28.6981 16.8947 30.3579 17.865 31.731 19.2537C33.1041 20.6424 34.1456 22.4043 34.7584 24.375M37.7913 39.5V31.25M37.7913 31.25H30.5413M37.7913 31.25L32.1847 37.245C30.886 38.7235 29.2794 39.8036 27.5147 40.3844C25.75 40.9653 23.8848 41.028 22.093 40.5667C20.3013 40.1053 18.6414 39.135 17.2684 37.7463C15.8953 36.3576 14.8538 34.5957 14.2409 32.625" stroke="white" stroke-width="3" stroke-linecap="round" stroke-linejoin="round"/>
</g>
<defs>
<clipPath id="clip0_26847_37">
<rect width="29" height="33" fill="white" transform="translate(10 12)"/>
</clipPath>
</defs>
</svg>
